<svg aria-hidden="true" style="position: absolute; width: 0; height: 0; overflow: hidden;" version="1.1" xmlns="http://www.w3.org/2000/svg" xmlns:xlink="http://www.w3.org/1999/xlink">
<defs>
<symbol id="email" viewBox="0 0 32 32">
<path d="M15.719 0.35c-1.463 0.144-2.406 0.313-3.463 0.619-2.094 0.606-4.2 1.75-5.862 3.181-2.35 2.019-4.063 4.8-4.806 7.787-0.306 1.244-0.406 2.006-0.444 3.469-0.106 3.919 0.706 7.012 2.575 9.813 1.875 2.813 4.556 4.738 7.944 5.712 1.769 0.506 3.169 0.706 5.025 0.712 2.575 0.012 4.563-0.45 7.031-1.644 2.219-1.075 4.419-2.881 5.825-4.775 1.144-1.538 1.144-1.725 0.012-1.725-0.587 0-0.531-0.044-1.35 1.006-0.55 0.706-1.788 1.95-2.488 2.5-2 1.581-4.381 2.663-6.719 3.050-1.269 0.212-3.244 0.2-4.688-0.019-4.119-0.631-7.319-2.581-9.4-5.725-0.5-0.756-1.237-2.275-1.531-3.156-0.563-1.712-0.781-3.356-0.737-5.531 0.038-2.012 0.263-3.256 0.888-4.85 2.206-5.662 7.619-9.175 13.781-8.938 1.519 0.056 2.556 0.225 3.844 0.612 4.4 1.331 7.425 4.719 8.088 9.063 0.225 1.45 0.163 3.238-0.144 4.581-0.6 2.587-2.281 5.238-4.256 6.7-1.694 1.25-3.706 1.688-4.462 0.969-0.381-0.369-0.469-0.875-0.294-1.775 0.137-0.7 0.231-0.956 2.875-7.813 1.363-3.531 2.475-6.475 2.475-6.544 0-0.219-0.238-0.319-0.756-0.319-0.363 0-0.512 0.025-0.613 0.106-0.075 0.069-0.269 0.5-0.475 1.075-0.194 0.531-0.375 1.006-0.4 1.056-0.038 0.069-0.106 0-0.25-0.256-0.406-0.713-1.35-1.556-2.225-1.994-1.806-0.906-4.281-1.013-6.25-0.269-1.813 0.681-3.738 2.306-5.012 4.219-1.569 2.363-2.519 5.306-2.519 7.806 0 2.6 1.312 4.844 3.481 5.938 0.919 0.462 2.256 0.681 3.412 0.563 1.912-0.194 3.225-0.725 4.306-1.738l0.413-0.381 0.044 0.231c0.15 0.819 1 1.606 1.969 1.831 0.494 0.119 1.462 0.094 2.075-0.056 2.725-0.65 5.294-2.956 6.863-6.162 1.331-2.712 1.7-5.55 1.125-8.606-0.356-1.881-1.319-3.931-2.563-5.456-0.431-0.531-1.456-1.519-1.969-1.913-1.956-1.5-4.412-2.481-7.094-2.837-0.656-0.088-2.813-0.169-3.281-0.119zM18.475 8.156c0.688 0.125 0.913 0.194 1.462 0.463 1.156 0.569 1.875 1.313 2.313 2.394l0.181 0.463-1.581 4.094c-1.587 4.106-1.938 4.919-2.462 5.7-0.438 0.656-1.269 1.5-1.875 1.906-0.963 0.644-1.906 0.906-3.262 0.906-1.006 0-1.575-0.131-2.306-0.525-1.131-0.606-1.95-1.644-2.325-2.944-0.256-0.9-0.231-2.413 0.075-3.831 0.294-1.363 1.056-3.2 1.831-4.431 1.294-2.037 3.206-3.625 4.938-4.1 0.944-0.263 1.931-0.294 3.012-0.094z"></path>
</symbol>
<symbol id="telephone" viewBox="0 0 32 32">
<path d="M27.419 20.852l-4.201-0.48c-1.009-0.116-2.002 0.232-2.713 0.943l-3.044 3.044c-4.681-2.382-8.519-6.203-10.901-10.901l3.060-3.060c0.711-0.711 1.059-1.704 0.943-2.713l-0.48-4.168c-0.198-1.671-1.604-2.928-3.292-2.928h-2.862c-1.869 0-3.424 1.555-3.308 3.424 0.877 14.126 12.174 25.407 26.284 26.284 1.869 0.116 3.424-1.439 3.424-3.308v-2.861c0.016-1.671-1.241-3.077-2.911-3.275z"></path>
</symbol>
<symbol id="map" viewBox="0 0 32 32">
<path d="M21 6l-10-4-11 4v24l11-4 10 4 11-4v-24l-11 4zM12 4.554l8 3.2v19.692l-8-3.2v-19.692zM2 7.401l8-2.909v19.744l-8 2.909v-19.744zM30 24.599l-8 2.909v-19.744l8-2.909v19.744z"></path>
</symbol>
<symbol id="user" viewBox="0 0 32 32">
<path d="M10 6c0-3.314 2.686-6 6-6s6 2.686 6 6c0 3.314-2.686 6-6 6s-6-2.686-6-6zM24.002 14h-1.107l-6.222 12.633 2.327-11.633-3-3-3 3 2.327 11.633-6.222-12.633h-1.107c-3.998 0-3.998 2.687-3.998 6v10h24v-10c0-3.313 0-6-3.998-6z"></path>
</symbol>
</defs>
</svg>
