<svg aria-hidden="true" style="position: absolute; width: 0; height: 0; overflow: hidden;" version="1.1" xmlns="http://www.w3.org/2000/svg" xmlns:xlink="http://www.w3.org/1999/xlink">
<defs>
<symbol id="icon-telegram" viewBox="0 0 32 32">
<path fill="#fff" style="fill: var(--color1, #fff)" d="M32 0l-32 18 10.227 3.788 15.773-14.788-11.998 16.186 0.010 0.004-0.012-0.004v8.814l5.735-6.691 7.265 2.691 5-28z"></path>
</symbol>
<symbol id="icon-phone" viewBox="0 0 32 32">
<path d="M22 20c-2 2-2 4-4 4s-4-2-6-4-4-4-4-6 2-2 4-4-4-8-6-8-6 6-6 6c0 4 4.11 12.11 8 16s12 8 16 8c0 0 6-4 6-6s-6-8-8-6z"></path>
</symbol>
<symbol id="icon-mail2" viewBox="0 0 32 32">
<path d="M26.666 0h-21.332c-2.934 0-5.334 2.4-5.334 5.334v21.332c0 2.936 2.4 5.334 5.334 5.334h21.332c2.934 0 5.334-2.398 5.334-5.334v-21.332c0-2.934-2.4-5.334-5.334-5.334zM26.666 4c0.25 0 0.486 0.072 0.688 0.198l-11.356 9.388-11.354-9.388c0.202-0.126 0.438-0.198 0.688-0.198h21.332zM5.334 28c-0.060 0-0.12-0.004-0.178-0.012l7.050-9.78-0.914-0.914-7.292 7.292v-19.098l12 14.512 12-14.512v19.098l-7.292-7.292-0.914 0.914 7.050 9.78c-0.058 0.008-0.118 0.012-0.176 0.012h-21.332z"></path>
</symbol>
<symbol id="icon-instagram" viewBox="0 0 32 32">
<path d="M29 0h-26c-1.65 0-3 1.35-3 3v26c0 1.65 1.35 3 3 3h26c1.65 0 3-1.35 3-3v-26c0-1.65-1.35-3-3-3zM22 5c0-0.55 0.45-1 1-1h4c0.55 0 1 0.45 1 1v4c0 0.55-0.45 1-1 1h-4c-0.55 0-1-0.45-1-1v-4zM16 10c3.312 0 6 2.688 6 6s-2.688 6-6 6c-3.312 0-6-2.688-6-6s2.688-6 6-6zM28 27v0c0 0.55-0.45 1-1 1h-22c-0.55 0-1-0.45-1-1v0-13h2.2c-0.132 0.644-0.2 1.312-0.2 2 0 5.524 4.474 10 10 10s10-4.476 10-10c0-0.688-0.068-1.356-0.2-2h2.2v13z"></path>
</symbol>
</defs>
</svg>
